<?xml version="1.0" standalone="no"?>
<!DOCTYPE svg PUBLIC "-//W3C//DTD SVG 20010904//EN"
 "http://www.w3.org/TR/2001/REC-SVG-20010904/DTD/svg10.dtd">
<svg version="1.0" xmlns="http://www.w3.org/2000/svg"
 width="500.000000pt" height="500.000000pt" viewBox="0 0 500.000000 500.000000"
 preserveAspectRatio="xMidYMid meet">
<metadata>
Created by potrace 1.14, written by Peter Selinger 2001-2017
</metadata>
<g transform="translate(0.000000,500.000000) scale(0.100000,-0.100000)"
fill="#000000" stroke="none">
<path d="M2329 4995 c-2 -1 -40 -6 -83 -10 -43 -4 -88 -8 -100 -11 -11 -2 -38
-6 -61 -10 -138 -20 -339 -75 -495 -136 -205 -81 -502 -249 -621 -352 -20 -17
-56 -47 -80 -66 -44 -35 -227 -214 -285 -280 -201 -226 -411 -607 -494 -895
-83 -292 -109 -481 -105 -780 4 -289 40 -496 136 -780 45 -133 162 -379 235
-495 198 -313 482 -598 787 -790 288 -181 614 -306 922 -355 199 -31 233 -33
450 -31 208 3 334 17 530 60 150 32 345 102 513 183 81 39 291 158 327 185 6
4 47 35 92 68 185 137 357 307 494 490 80 107 229 341 229 360 0 5 9 24 20 42
55 94 158 380 194 541 49 212 61 337 60 592 0 208 -13 331 -54 515 -166 745
-656 1366 -1345 1704 -194 96 -458 184 -629 211 -21 4 -47 8 -56 10 -10 2 -38
6 -62 9 -23 4 -61 9 -83 12 -44 6 -431 15 -436 9z"/>
</g>
</svg>
